<svg width="131" height="131" viewBox="0 0 131 131" fill="none" xmlns="http://www.w3.org/2000/svg">
<path d="M65.2344 130.468C101.262 130.468 130.468 101.262 130.468 65.2344C130.468 29.2064 101.262 0 65.2344 0C29.2064 0 0 29.2064 0 65.2344C0 101.262 29.2064 130.468 65.2344 130.468Z" fill="black"/>
<path d="M51.7022 86C51.7022 86 47.9641 87.883 54.3625 88.5202C62.1139 89.2862 66.0756 89.1763 74.6178 87.7759C74.6178 87.7759 76.8636 88.9957 80 90.0522C60.8508 97.1612 36.6615 89.6404 51.7022 86Z" fill="#5382A1"/>
<path d="M49.3157 75C49.3157 75 45.0825 78.1343 51.5475 78.8032C59.9079 79.6659 66.5104 79.7364 77.9351 77.536C77.9351 77.536 79.5152 79.1384 82 80.0147C58.6235 86.852 32.5863 80.5539 49.3157 75Z" fill="#5382A1"/>
<path d="M68.3633 56.989C73.1203 62.2583 67.1134 67 67.1134 67C67.1134 67 79.1924 61.0008 73.6451 53.4884C68.464 46.4826 64.4908 43.0017 86 31C86 31 52.2377 39.1126 68.3633 56.989Z" fill="#E76F00"/>
<path d="M94.1369 93.7953C94.1369 93.7953 96.8692 95.9863 91.1279 97.6814C80.2105 100.9 45.6888 101.872 36.0988 97.8096C32.6515 96.35 39.1162 94.3245 41.1498 93.8995C43.2706 93.4519 44.4826 93.5353 44.4826 93.5353C40.6488 90.9068 19.7024 98.6964 33.8428 100.927C72.4059 107.014 104.14 98.1865 94.1369 93.7953Z" fill="#5382A1"/>
<path d="M53.1269 64.0166C53.1269 64.0166 35.3999 68.4312 46.8493 70.0342C51.6836 70.7128 61.3206 70.5593 70.2973 69.7707C77.6335 69.1219 85 67.7424 85 67.7424C85 67.7424 82.4132 68.9039 80.5416 70.2437C62.5402 75.2075 27.7647 72.8983 37.7761 67.8209C46.2428 63.5299 53.1269 64.0166 53.1269 64.0166Z" fill="#5382A1"/>
<path d="M85.3796 82.5007C104.268 72.5937 95.5348 63.0732 89.4391 64.3559C87.945 64.6698 87.2788 64.9417 87.2788 64.9417C87.2788 64.9417 87.8335 64.0647 88.8929 63.6851C100.952 59.4058 110.227 76.3063 85 83C85 83.0003 85.2922 82.7365 85.3796 82.5007Z" fill="#5382A1"/>
<path d="M74.415 11C74.415 11 84.4903 21.0415 64.8589 36.4824C49.1165 48.8687 61.2691 55.931 64.8524 64C55.6633 55.7399 48.9197 48.4685 53.4438 41.7009C60.0841 31.7667 78.4801 26.9503 74.415 11Z" fill="#E76F00"/>
<path d="M55.7973 107.701C73.3723 108.796 100.361 107.094 101 99C101 99 99.7713 102.068 86.4752 104.505C71.4745 107.253 52.9733 106.932 42 105.171C42.0003 105.171 44.2464 106.98 55.7973 107.701Z" fill="#5382A1"/>
</svg>
