<svg width="131" height="131" viewBox="0 0 131 131" fill="none" xmlns="http://www.w3.org/2000/svg">
<path d="M65.5 130.734C101.528 130.734 130.734 101.528 130.734 65.5C130.734 29.472 101.528 0.265625 65.5 0.265625C29.472 0.265625 0.265625 29.472 0.265625 65.5C0.265625 101.528 29.472 130.734 65.5 130.734Z" fill="#F7DF1E"/>
<path d="M45.1469 40.189H56.4977V72.1538C56.4977 86.505 49.5828 91.594 38.6234 91.594C35.8836 91.594 32.4914 91.202 30.2734 90.419L31.5781 81.1562C33.1438 81.678 35.2313 82.069 37.4492 82.069C42.2766 82.069 45.2773 79.8515 45.2773 72.1538L45.1469 40.189Z" fill="#06070C"/>
<path d="M66.5438 79.0689C69.5445 80.6345 74.3719 82.2 79.1992 82.2C84.418 82.2 87.158 79.982 87.158 76.5898C87.158 73.4586 84.809 71.6321 78.6773 69.5446C70.3273 66.5438 64.7172 61.847 64.7172 54.4103C64.7172 45.9298 72.0234 39.4062 83.896 39.4062C89.637 39.4062 93.812 40.5805 96.813 42.0156L94.203 51.1484C92.246 50.2352 88.593 48.8001 83.766 48.8001C78.8078 48.8001 76.4594 51.1484 76.4594 53.6273C76.4594 56.8891 79.1992 58.3243 85.853 60.8032C94.725 64.0649 98.9 68.7617 98.9 75.9375C98.9 84.418 92.507 91.5941 78.5469 91.5941C72.8063 91.5941 67.0656 90.028 64.1953 88.462L66.5438 79.0689Z" fill="#06070C"/>
</svg>
