<svg width="130" height="130" viewBox="0 0 130 130" fill="none" xmlns="http://www.w3.org/2000/svg">
<path d="M65 130C100.899 130 130 100.899 130 65C130 29.1015 100.899 0 65 0C29.1015 0 0 29.1015 0 65C0 100.899 29.1015 130 65 130Z" fill="#3776AB"/>
<path d="M64.7617 32.6848C48.2705 32.6848 49.2988 39.8323 49.2988 39.8323L49.3115 47.2463H65.0537V49.468H43.0654C43.0654 49.468 32.5156 48.2747 32.5156 64.9182C32.5156 81.5618 41.7324 80.9651 41.7324 80.9651H47.2295V73.2463C47.2295 73.2463 46.9375 64.0295 56.2939 64.0295H71.9092C71.9092 64.0295 80.6816 64.1692 80.6816 55.5491V41.3049C80.6816 41.3049 82.002 32.6848 64.7617 32.6848V32.6848ZM56.0908 37.6741C57.6523 37.6741 58.9219 38.9436 58.9219 40.5051C58.9219 42.0667 57.6523 43.3362 56.0908 43.3362C54.5293 43.3362 53.2598 42.0667 53.2598 40.5051C53.2598 38.9436 54.5166 37.6741 56.0908 37.6741V37.6741ZM65.2314 97.3166C81.7227 97.3166 80.6943 90.1692 80.6943 90.1692L80.6816 82.7551H64.9395V80.5335H86.9277C86.9277 80.5335 97.4775 81.7268 97.4775 65.0833C97.4775 48.4397 88.2607 49.0364 88.2607 49.0364H82.7637V56.7551C82.7637 56.7551 83.0557 65.9719 73.6992 65.9719H58.084C58.084 65.9719 49.3115 65.8323 49.3115 74.4524V88.6965C49.3115 88.6965 48.0039 97.3166 65.2314 97.3166ZM73.915 92.3274C72.3535 92.3274 71.084 91.0579 71.084 89.4963C71.084 87.9348 72.3535 86.6653 73.915 86.6653C75.4766 86.6653 76.7461 87.9348 76.7461 89.4963C76.7461 91.0706 75.4766 92.3274 73.915 92.3274Z" fill="white"/>
</svg>
