<svg width="131" height="131" viewBox="0 0 131 131" fill="none" xmlns="http://www.w3.org/2000/svg">
<path d="M65.2344 130.468C101.262 130.468 130.468 101.262 130.468 65.2344C130.468 29.2064 101.262 0 65.2344 0C29.2064 0 0 29.2064 0 65.2344C0 101.262 29.2064 130.468 65.2344 130.468Z" fill="#F0652A"/>
<path d="M34.1826 32.6172L39.7928 95.8944L65.1037 103.07L90.5454 95.8944L96.2854 32.6172H34.1826ZM84.0214 53.2313H54.2748L54.9272 61.1899H83.2384L81.0209 85.1964L65.2342 89.5014H65.1037L49.1865 85.0654L48.2733 72.9321H55.9709L56.4928 79.0641L65.1037 81.4125L73.7147 79.0641L74.6279 69.018H47.8819L45.7944 45.5336H84.6744L84.0214 53.2313Z" fill="white"/>
</svg>
