<svg width="31" height="30" fill="none" xmlns="http://www.w3.org/2000/svg"><g clip-path="url(#a)"><path d="M1.887 3.94c0 .257-.1.503-.276.685a.93.93 0 0 1-.667.284.93.93 0 0 1-.668-.284A.984.984 0 0 1 0 3.94V-.03c0-.256.1-.503.277-.684A.933.933 0 0 1 .944-1h5.401a.918.918 0 0 1 .696.264.968.968 0 0 1 .294.702.99.99 0 0 1-.294.701.937.937 0 0 1-.696.265H1.887v3.007Zm2.356 3.474C9.751.414 16.1-3.38 20.861 2.84c5.474.296 7.82 8.837 4.054 13.05.263-.011.524.05.757.177l.038.023c.282.173.489.452.577.778.114.47.098.964-.047 1.426l-.018.057a8.277 8.277 0 0 0-.19.747c-.252 1.122-.53 2.36-1.765 2.292a1.272 1.272 0 0 1-.2-.024c-.047 2.334-1.155 3.4-2.603 4.8l-.558.542c-1.465 1.452-3.07 2.157-4.7 2.16-1.63.002-3.34-.734-4.879-2.145l-.545-.497c-1.42-1.255-2.606-2.306-2.83-4.865H7.82c-.293 0-.58-.077-.835-.225-.583-.34-.899-.988-1.052-1.727a8.764 8.764 0 0 1-.036-2.756.563.563 0 0 1 .033-.133c.204-.586.462-.902.782-1.037-.146-2.793.313-7.213-2.475-8.08l.005.01Zm15.894.661a5.765 5.765 0 0 1-3.89 1.792c-.384.07-.757.116-1.13.163-1.25.158-2.496.317-4.148 1.491a4.076 4.076 0 0 0-1.58 2 5.18 5.18 0 0 0-.075 2.776.578.578 0 0 1-.156.563.542.542 0 0 1-.558.117l-.63-.239c-.518-.184-.84-.26-.994.132a7.574 7.574 0 0 0 .03 2.308c.096.451.252.83.522.985a.61.61 0 0 0 .31.08 1.46 1.46 0 0 0 .447-.074.557.557 0 0 1 .164-.032.54.54 0 0 1 .388.156.57.57 0 0 1 .17.392c.057 2.54 1.155 3.513 2.49 4.693l.557.497c1.34 1.227 2.75 1.86 4.132 1.86 1.383 0 2.69-.605 3.943-1.85l.558-.541c1.4-1.354 2.432-2.35 2.232-4.774a.594.594 0 0 1 .091-.358.536.536 0 0 1 .757-.158c.09.065.19.117.293.156.075.03.154.048.234.054.333.019.505-.736.656-1.423.06-.29.134-.576.222-.858.083-.25.101-.519.053-.778a.234.234 0 0 0-.08-.132h-.015a.493.493 0 0 0-.278-.037c-.34.054-.661.2-.928.423a.536.536 0 0 1-.832-.234.575.575 0 0 1-.029-.334c.505-3.085.28-5.098-.36-6.467-.56-1.203-1.454-1.929-2.422-2.473l-.157.122.013.002Zm-5.666 5.938c.588.226.711.729.383.918-.386.223-.87-.11-1.246-.234-.982-.321-2.147-.357-2.992.187a4.563 4.563 0 0 0-.689.56c.082-.314.223-.608.416-.866.853-1.102 2.992-1.167 4.128-.565Zm-3.053 2.16a.229.229 0 0 1-.264-.085.244.244 0 0 1-.041-.092.298.298 0 0 1 .007-.208.287.287 0 0 1 .142-.15 3.935 3.935 0 0 1 2.924 0 .295.295 0 0 1 .156.353.242.242 0 0 1-.11.16.227.227 0 0 1-.19.022 4.264 4.264 0 0 0-.482-.148c.016.06.024.124.025.187a.705.705 0 0 1-.212.465.669.669 0 0 1-.93 0 .706.706 0 0 1-.213-.465c0-.09.018-.177.05-.26a3.454 3.454 0 0 0-.862.229v-.008Zm6.277-2.16c-.588.226-.712.729-.384.918.386.223.87-.11 1.247-.234.981-.321 2.144-.357 2.992.187.246.163.477.351.688.56a2.493 2.493 0 0 0-.416-.866c-.853-1.102-2.992-1.167-4.127-.565Zm1.097 1.95a.738.738 0 0 0-.045.259c.01.177.086.344.212.466a.669.669 0 0 0 .93 0 .706.706 0 0 0 .213-.466.692.692 0 0 0-.071-.309c.304.035.603.103.893.203a.226.226 0 0 0 .192-.028.238.238 0 0 0 .106-.167.3.3 0 0 0-.018-.207.29.29 0 0 0-.146-.143 4.596 4.596 0 0 0-1.463-.243 4.432 4.432 0 0 0-1.444.259.291.291 0 0 0-.147.143.304.304 0 0 0-.02.207.26.26 0 0 0 .112.158.247.247 0 0 0 .187.034c.165-.058.333-.106.504-.143l.005-.023Zm-3.84 5.637a.428.428 0 0 1 .23-.737.403.403 0 0 1 .298.088.933.933 0 0 0 .593.26.951.951 0 0 0 .618-.275.402.402 0 0 1 .452-.047.431.431 0 0 1 .068.696 1.74 1.74 0 0 1-1.15.463 1.65 1.65 0 0 1-1.108-.461v.013Zm-1.223 2.61a.432.432 0 0 1-.25-.258.455.455 0 0 1 .14-.505.427.427 0 0 1 .344-.086c.06.012.117.036.167.072a4.123 4.123 0 0 0 1.965.552 3.872 3.872 0 0 0 1.933-.547.425.425 0 0 1 .588.174.453.453 0 0 1-.17.604 4.627 4.627 0 0 1-2.348.65 4.97 4.97 0 0 1-2.369-.65v-.005Zm15.389-.15c0-.257.1-.503.276-.685a.93.93 0 0 1 .668-.284c.25 0 .49.102.667.284a.984.984 0 0 1 .276.685v3.98c0 .258-.1.504-.277.686a.933.933 0 0 1-.667.284h-5.405a.919.919 0 0 1-.697-.264.97.97 0 0 1-.293-.702.992.992 0 0 1 .293-.7.937.937 0 0 1 .696-.265h4.458V24.06h.005Zm1.887-20.12c0 .257-.1.503-.276.685a.93.93 0 0 1-.668.284.93.93 0 0 1-.667-.284.983.983 0 0 1-.276-.686V.937h-4.463a.918.918 0 0 1-.697-.265.97.97 0 0 1-.292-.701.992.992 0 0 1 .293-.701.937.937 0 0 1 .696-.265h5.401c.25 0 .49.103.667.285A.986.986 0 0 1 31-.025v3.964h.005ZM0 24.06c0-.257.1-.503.276-.685a.93.93 0 0 1 .668-.284c.25 0 .49.102.667.284a.984.984 0 0 1 .276.685v3.003h4.458a.919.919 0 0 1 .696.265.97.97 0 0 1 .294.7.99.99 0 0 1-.294.702.937.937 0 0 1-.696.265H.944a.933.933 0 0 1-.662-.28.986.986 0 0 1-.282-.674v-3.98Z" fill="url(#b)"/></g><defs><linearGradient id="b" x1="15.502" y1="-1.001" x2="15.502" y2="29.012" gradientUnits="userSpaceOnUse"><stop stop-color="#8F00FF"/><stop offset="1" stop-color="#520093"/></linearGradient><clipPath id="a"><path fill="#fff" d="M0 0h31v30H0z"/></clipPath></defs></svg>