<svg width="20" height="20" fill="none" xmlns="http://www.w3.org/2000/svg"><g clip-path="url(#a)"><path d="M10 0a10.003 10.003 0 1 1-7.07 2.93A9.963 9.963 0 0 1 10 0Zm1.628 8.258a.539.539 0 0 1 .742.77l-2.044 2.025a.539.539 0 0 1-.757 0l-2.02-1.995a.54.54 0 0 1 .752-.77L9.412 9.39l.01-3.88a.54.54 0 0 1 1.08.01l-.01 3.848 1.123-1.11h.013Zm-5.931 4.957v-2.116a.54.54 0 0 1 1.08.01v1.537h6.43V11.1a.538.538 0 0 1 .751-.493.54.54 0 0 1 .33.502v2.102a.54.54 0 0 1-.536.515H6.24a.54.54 0 0 1-.543-.51Zm10.488-9.4a8.747 8.747 0 1 0-12.37 12.37 8.747 8.747 0 0 0 12.37-12.37Z" fill="#fff"/></g><defs><clipPath id="a"><path fill="#fff" d="M0 0h20v20H0z"/></clipPath></defs></svg>