<svg width="340" height="307" viewBox="0 0 340 307" fill="none" xmlns="http://www.w3.org/2000/svg">
<g clip-path="url(#clip0_1165_2)">
<path d="M238.056 57.7558C238.222 58.9055 238.832 59.9449 239.755 60.6531C240.678 61.3612 241.842 61.6821 242.998 61.5475C243.233 61.5164 243.464 61.466 243.691 61.3968L253.007 73.8719L261.016 71.3831L246.402 55.6703C246.041 54.7564 245.388 53.9871 244.543 53.4825C243.699 52.978 242.71 52.7665 241.733 52.8812C241.177 52.9518 240.64 53.1309 240.154 53.4082C239.668 53.6856 239.241 54.0558 238.898 54.4977C238.555 54.9396 238.303 55.4445 238.155 55.9837C238.008 56.5229 237.969 57.0857 238.04 57.6401C238.044 57.6788 238.05 57.7173 238.056 57.7558Z" fill="#A0616A"/>
<path d="M303.844 113.473C303.844 113.473 269.056 97.2768 260.256 86.9321L244.487 67.401L252.484 60.8747L267.306 77.9053C267.171 81.4838 284.69 85.1526 294.108 90.3687L303.844 113.473Z" fill="url(#paint0_linear_1165_2)"/>
<path d="M312.397 299.034L305.573 299.034L302.327 272.778L312.398 272.778L312.397 299.034Z" fill="#A0616A"/>
<path d="M312.637 306.135L291.654 306.134V305.869C291.654 303.709 292.514 301.636 294.046 300.108C295.578 298.581 297.655 297.722 299.821 297.722H299.821L303.654 294.821L310.806 297.722L312.638 297.723L312.637 306.135Z" fill="white"/>
<path d="M296.129 293.028L289.484 294.574L280.342 269.741L290.15 267.459L296.129 293.028Z" fill="#A0616A"/>
<path d="M297.981 299.889L277.546 304.645L277.486 304.387C276.993 302.283 277.359 300.07 278.503 298.234C279.647 296.399 281.474 295.093 283.583 294.601L283.584 294.601L286.656 290.908L294.281 292.112L296.065 291.697L297.981 299.889Z" fill="white"/>
<path d="M229.528 145.717H39.5935C38.3948 145.703 37.2016 145.552 36.0373 145.267C32.5625 144.434 29.4709 142.456 27.2629 139.653C25.0548 136.85 23.8594 133.386 23.8701 129.821V65.4201C23.8767 61.2076 25.5581 57.1697 28.5455 54.1923C31.5329 51.215 35.5822 49.5413 39.805 49.5386H229.528C232.085 49.5318 234.606 50.1472 236.871 51.3315C237.773 51.7981 238.626 52.3533 239.417 52.989C241.307 54.465 242.835 56.3521 243.882 58.5065C244.93 60.6609 245.471 63.0256 245.463 65.4201V129.821C245.458 134.035 243.778 138.076 240.79 141.056C237.803 144.036 233.752 145.712 229.528 145.717V145.717Z" fill="#F2F2F2"/>
<path d="M216.797 144.309C225.421 123.4 234.505 102.699 244.051 82.2034V116.952C237.432 126.808 230.092 136.058 221.582 144.309H216.797Z" fill="url(#paint1_linear_1165_2)"/>
<path d="M238.533 54.0863C221.469 84.6251 203.614 114.699 184.969 144.309H181.723C200.678 114.235 218.843 83.6583 236.218 52.5798C237.038 53.0039 237.813 53.5085 238.533 54.0863V54.0863Z" fill="url(#paint2_linear_1165_2)"/>
<path d="M113.312 87.4269C102.161 107.094 89.8551 126.088 76.4596 144.309H57.109C69.7836 128.906 82.4676 113.502 95.1609 98.0993C98.8023 93.6642 102.754 89.0179 108.216 87.2158L113.312 87.4269Z" fill="url(#paint3_linear_1165_2)"/>
<path d="M87.5957 84.273C85.5773 86.3709 83.6437 88.5532 81.823 90.8201C77.8145 95.6353 73.8625 100.493 69.8965 105.336C67.4265 108.349 64.9565 111.362 62.5148 114.375C61.7393 113.878 61.0032 113.323 60.313 112.714C56.4128 109.337 53.9936 104.571 53.5739 99.4363C53.1542 94.3018 54.7673 89.2075 58.0676 85.2451C61.3678 81.2826 66.0927 78.7674 71.2296 78.2383C76.3665 77.7092 81.5069 79.2084 85.5491 82.4145C86.2776 82.9813 86.9618 83.6026 87.5957 84.273V84.273Z" fill="white"/>
<path d="M196.74 97.9584L159.648 84.4279L141.229 77.712C135.231 75.5296 129.246 73.0375 123.05 71.4606C117.662 69.9244 111.94 69.9978 106.593 71.6718C101.825 73.432 97.4619 76.1328 93.7635 79.6127C92.1262 81.1192 90.5407 82.6727 89.007 84.2731C86.9886 86.3709 85.055 88.5532 83.2343 90.8201C79.2258 95.6353 75.2739 100.493 71.3078 105.336C68.8378 108.349 66.3678 111.362 63.9261 114.375C55.7681 124.33 47.6572 134.307 39.5933 144.309C38.5085 144.296 37.4287 144.159 36.3752 143.9C44.7873 133.481 53.237 123.086 61.7243 112.714C62.6982 111.503 63.7003 110.278 64.6883 109.067C68.8237 104.013 72.9639 98.9628 77.1087 93.9176C80.3127 90.0176 83.4884 86.0893 86.9605 82.4145C87.271 82.0766 87.5815 81.7528 87.9061 81.4149C94.9491 74.1498 103.742 67.7295 114.271 67.5605C120.468 67.462 126.452 69.4191 132.211 71.4887C138.407 73.7274 144.589 76.0083 150.785 78.2751L188.131 91.9042L197.474 95.3115C199.126 95.9028 198.42 98.5779 196.74 97.9584Z" fill="url(#paint4_linear_1165_2)"/>
<path d="M0.98277 72.6285V33.9655C0.984821 32.7589 1.46658 31.6023 2.32237 30.7495C3.17816 29.8968 4.33809 29.4175 5.54769 29.4168H55.7718V28.4364H5.54769C4.07752 28.4374 2.66778 29.0201 1.62774 30.0566C0.5877 31.0932 0.00230952 32.4989 0 33.9655V72.6285L0.98277 72.6285Z" fill="#56586F"/>
<path d="M4.46901 165.71C3.47342 165.472 2.58763 164.905 1.95497 164.102C1.32231 163.299 0.979787 162.306 0.982795 161.285V122.627H2.45417e-05V161.285C-0.00368175 162.526 0.412504 163.732 1.18123 164.708C1.94996 165.684 3.02627 166.372 4.23604 166.662C4.64137 166.761 5.05676 166.814 5.47409 166.819H55.7718V165.838H5.48008C5.13927 165.834 4.80006 165.791 4.46901 165.71V165.71Z" fill="#56586F"/>
<path d="M229.475 122.627V161.285C229.474 162.492 228.992 163.649 228.136 164.503C227.281 165.357 226.12 165.837 224.91 165.838H174.686V166.819H224.91C226.381 166.817 227.791 166.234 228.831 165.196C229.871 164.159 230.456 162.752 230.458 161.285V122.627H229.475Z" fill="#56586F"/>
<path d="M228.488 29.9306C228.746 30.0641 228.99 30.223 229.216 30.405C229.757 30.8275 230.195 31.3679 230.496 31.985C230.796 32.6021 230.951 33.2795 230.949 33.9655V72.6285H231.932V33.9655C231.935 33.1319 231.747 32.3086 231.382 31.5586C231.017 30.8085 230.485 30.1515 229.827 29.6377C229.552 29.4164 229.255 29.223 228.941 29.0606C228.152 28.6483 227.275 28.4341 226.384 28.4364H176.16V29.4168H226.384C227.117 29.4149 227.839 29.5912 228.488 29.9306V29.9306Z" fill="#56586F"/>
<path d="M318.309 171.549L275.853 173.672L272.905 187.887V200.548L271.095 247.693L283.715 284.452H293.833L292.806 279.795C293.367 279.013 293.683 278.081 293.712 277.119C293.742 276.157 293.485 275.208 292.973 274.392L292.162 273.098L290.84 267.541L287.892 246.953L300.519 200.548L302.142 285.187H313.134L314.746 283.351C315.641 282.331 316.174 281.044 316.262 279.691C316.351 278.338 315.989 276.994 315.233 275.867V273.815L313.935 266.561L326.049 176.511L318.309 171.549Z" fill="#101320"/>
<path d="M299.965 83.3039L286.116 84.0114L284.542 90.5595L274.485 98.2376C272.211 99.9736 270.469 102.309 269.456 104.981C268.443 107.652 268.198 110.553 268.75 113.356L274.325 141.647L273.963 159.354L274.767 166.605L274.706 167.703L273.475 168.708C272.637 169.392 272.058 170.341 271.832 171.397C271.606 172.453 271.748 173.554 272.233 174.52V174.52C272.233 174.52 266.164 187.609 274.946 188.275C283.727 188.941 289.159 179.832 297.549 183.373C305.94 186.914 313.43 187.329 315.73 183.373C318.03 179.417 325.028 180.339 325.87 176.883C326.711 173.427 322.451 169.514 321.878 164.363C321.306 159.211 319.832 135.193 319.832 135.193L323.954 111.612C324.538 108.273 324.018 104.836 322.471 101.818C320.925 98.8007 318.437 96.3666 315.383 94.8831L302.184 88.4728L299.965 83.3039Z" fill="url(#paint5_linear_1165_2)"/>
<path d="M227.838 157.135C228.395 155.936 229.399 155.001 230.636 154.529C231.874 154.057 233.247 154.085 234.464 154.608C234.709 154.718 234.945 154.848 235.17 154.997L249.401 144.426L257.318 149.743L236.254 162.121C235.563 163 234.599 163.627 233.514 163.902C232.428 164.178 231.282 164.087 230.253 163.644C229.671 163.386 229.145 163.017 228.705 162.556C228.265 162.096 227.921 161.554 227.691 160.96C227.462 160.367 227.352 159.735 227.367 159.099C227.383 158.464 227.524 157.837 227.782 157.256C227.8 157.215 227.819 157.175 227.838 157.135Z" fill="#A0616A"/>
<path d="M272.054 101.386C272.054 101.386 253.607 134.894 246.463 144.749L241.04 148.975L241.532 162.785L253.65 156.115C253.65 156.115 278.104 137.637 277.403 129.944C276.701 122.25 272.054 101.386 272.054 101.386Z" fill="url(#paint6_linear_1165_2)"/>
<path d="M291.865 82.1976C299.093 82.1976 304.951 76.353 304.951 69.1433C304.951 61.9336 299.093 56.089 291.865 56.089C284.638 56.089 278.779 61.9336 278.779 69.1433C278.779 76.353 284.638 82.1976 291.865 82.1976Z" fill="#A0616A"/>
<path d="M296.922 81.1276C293.166 81.0047 292.825 80.0152 289.07 79.8923C287.874 79.8532 286.463 79.6897 285.885 78.6448C285.473 77.9007 285.663 76.9635 286.025 76.1942C286.454 75.46 286.84 74.7021 287.182 73.9241C287.388 73.3139 287.442 72.6629 287.34 72.0273C287.237 71.3917 286.981 70.7905 286.593 70.2758C286.205 69.7612 285.698 69.3484 285.114 69.0732C284.531 68.7981 283.889 68.6688 283.244 68.6966C282.101 68.7459 281.028 69.282 279.888 69.38C278.325 69.5143 274.869 64.3666 275.589 62.976C276.289 61.6225 277.699 60.6013 277.92 59.0941C278.065 58.1084 277.657 57.1289 277.602 56.1342C277.519 54.6593 281.267 57.9849 280.581 56.6759C278.897 53.465 294.763 49.4843 297.376 53.5063C298.352 55.0095 300.092 54.9069 301.642 55.8097C302.659 56.4014 305.225 58.4426 305.809 59.7149C306.345 61.0131 306.598 62.4102 306.552 63.8135C306.575 70.3398 305.579 76.3431 300.302 80.2008" fill="#1A1B29"/>
<path d="M231.681 303.129C228.132 303.441 224.559 302.958 221.221 301.716C217.884 300.474 214.866 298.504 212.389 295.95C209.151 292.544 206.929 288.16 204.779 283.92C204.154 282.686 203.507 281.411 202.849 280.188C202.116 278.855 201.799 277.333 201.94 275.819C202.081 274.305 202.674 272.867 203.641 271.692C204.568 270.517 205.827 269.646 207.254 269.191C208.682 268.736 210.214 268.718 211.652 269.139L211.966 269.229L214.788 280.216C215.209 278.577 216.113 274.885 216.684 271.267L216.732 270.964L217.013 271.089C219.96 272.39 222.732 274.056 225.261 276.048C229.743 279.634 233.388 284.151 235.944 289.284C238.499 294.417 239.903 300.044 240.058 305.774L240.065 306.115L231.681 303.129Z" fill="#F2F2F2"/>
<path d="M339.415 306.849L202.442 307C202.287 307 202.139 306.938 202.03 306.828C201.92 306.719 201.859 306.571 201.859 306.416C201.859 306.262 201.92 306.114 202.03 306.004C202.139 305.895 202.287 305.833 202.442 305.833L339.415 305.682C339.492 305.682 339.568 305.697 339.639 305.726C339.71 305.755 339.775 305.798 339.83 305.852C339.884 305.907 339.927 305.971 339.957 306.042C339.986 306.113 340.002 306.189 340.002 306.266C340.002 306.343 339.986 306.419 339.957 306.489C339.927 306.56 339.884 306.625 339.83 306.679C339.775 306.733 339.71 306.776 339.639 306.805C339.568 306.835 339.492 306.85 339.415 306.849Z" fill="#CACACA"/>
</g>
<defs>
<linearGradient id="paint0_linear_1165_2" x1="274.165" y1="60.8747" x2="274.165" y2="113.473" gradientUnits="userSpaceOnUse">
<stop stop-color="#8F00FF"/>
<stop offset="1" stop-color="#520093"/>
</linearGradient>
<linearGradient id="paint1_linear_1165_2" x1="216.797" y1="117.692" x2="244.051" y2="117.685" gradientUnits="userSpaceOnUse">
<stop stop-color="#5096FF"/>
<stop offset="1" stop-color="#2368CF"/>
</linearGradient>
<linearGradient id="paint2_linear_1165_2" x1="181.723" y1="104.996" x2="238.533" y2="104.976" gradientUnits="userSpaceOnUse">
<stop stop-color="#5096FF"/>
<stop offset="1" stop-color="#2368CF"/>
</linearGradient>
<linearGradient id="paint3_linear_1165_2" x1="57.109" y1="119.84" x2="113.312" y2="119.808" gradientUnits="userSpaceOnUse">
<stop stop-color="#5096FF"/>
<stop offset="1" stop-color="#2368CF"/>
</linearGradient>
<linearGradient id="paint4_linear_1165_2" x1="36.3752" y1="111.415" x2="198.413" y2="111.214" gradientUnits="userSpaceOnUse">
<stop stop-color="#5096FF"/>
<stop offset="1" stop-color="#2368CF"/>
</linearGradient>
<linearGradient id="paint5_linear_1165_2" x1="297.221" y1="83.3039" x2="297.221" y2="188.31" gradientUnits="userSpaceOnUse">
<stop stop-color="#8F00FF"/>
<stop offset="1" stop-color="#520093"/>
</linearGradient>
<linearGradient id="paint6_linear_1165_2" x1="259.229" y1="101.386" x2="259.229" y2="162.785" gradientUnits="userSpaceOnUse">
<stop stop-color="#8F00FF"/>
<stop offset="1" stop-color="#520093"/>
</linearGradient>
<clipPath id="clip0_1165_2">
<rect width="340" height="307" fill="white"/>
</clipPath>
</defs>
</svg>
