<svg width="502" height="454" fill="none" xmlns="http://www.w3.org/2000/svg"><g clip-path="url(#a)"><path d="M351.482 85.41a6.594 6.594 0 0 0 2.509 4.285 6.604 6.604 0 0 0 4.788 1.323c.347-.046.689-.12 1.023-.223l13.756 18.449 11.825-3.681-21.578-23.236a6.579 6.579 0 0 0-6.894-4.125 6.307 6.307 0 0 0-4.185 2.39 6.307 6.307 0 0 0-1.097 2.198 6.306 6.306 0 0 0-.171 2.45l.024.17Z" fill="#A0616A"/><path d="M448.617 167.807s-51.364-23.951-64.357-39.249l-23.282-28.883 11.807-9.652 21.885 25.186c-.2 5.291 25.666 10.717 39.572 18.431l14.375 34.167Z" fill="url(#b)"/><path d="m461.244 442.22-10.074-.001-4.793-38.828 14.87.001-.003 38.828Z" fill="#A0616A"/><path d="m461.6 452.721-30.982-.002v-.391c0-3.196 1.271-6.26 3.532-8.519a12.069 12.069 0 0 1 8.527-3.53h.001l5.659-4.289 10.559 4.29h2.704v12.441Z" fill="#fff"/><path d="m437.226 433.338-9.811 2.287-13.498-36.724 14.481-3.375 8.828 37.812Z" fill="#A0616A"/><path d="m439.96 443.484-30.172 7.033-.089-.381a12.042 12.042 0 0 1 1.503-9.099 12.054 12.054 0 0 1 7.501-5.372v-.001l4.536-5.462 11.258 1.781 2.634-.614 2.829 12.115Z" fill="#fff"/><path d="M338.891 215.49H58.459a23.231 23.231 0 0 1-5.25-.665 23.447 23.447 0 0 1-12.956-8.302 23.411 23.411 0 0 1-5.01-14.541V96.745c.01-6.23 2.493-12.2 6.904-16.604A23.553 23.553 0 0 1 58.77 73.26h280.12c3.776-.01 7.497.9 10.842 2.651a22.55 22.55 0 0 1 3.76 2.452 23.26 23.26 0 0 1 6.592 8.159 23.226 23.226 0 0 1 2.333 10.224v95.237a23.518 23.518 0 0 1-6.898 16.615 23.565 23.565 0 0 1-16.629 6.893Z" fill="#F2F2F2"/><path d="M320.094 213.408a2245.514 2245.514 0 0 1 40.241-91.843v51.387c-9.774 14.575-20.61 28.254-33.176 40.456h-7.065Z" fill="url(#c)"/><path d="M352.186 79.984a2961.374 2961.374 0 0 1-79.084 133.424h-4.793a2999.54 2999.54 0 0 0 80.46-135.652 20.506 20.506 0 0 1 3.417 2.228Z" fill="url(#d)"/><path d="M167.301 129.289a848.92 848.92 0 0 1-54.411 84.119H84.32c18.713-22.779 37.441-45.558 56.182-68.336 5.377-6.559 11.212-13.43 19.276-16.095l7.523.312Z" fill="url(#e)"/><path d="M129.332 124.625a144.613 144.613 0 0 0-8.523 9.682c-5.918 7.121-11.753 14.305-17.609 21.467a3121.532 3121.532 0 0 0-10.899 13.367 26.521 26.521 0 0 1-3.25-2.457 29.116 29.116 0 0 1-3.315-40.621 29.178 29.178 0 0 1 40.576-4.186 26.933 26.933 0 0 1 3.02 2.748Z" fill="#fff"/><path d="m290.482 144.864-54.766-20.01-27.195-9.931c-8.856-3.228-17.692-6.913-26.841-9.245a42.35 42.35 0 0 0-24.298.312 55.877 55.877 0 0 0-18.943 11.743 157.504 157.504 0 0 0-7.023 6.892 144.613 144.613 0 0 0-8.523 9.682c-5.918 7.121-11.753 14.305-17.609 21.467a3113.97 3113.97 0 0 0-10.899 13.367 7122.375 7122.375 0 0 0-35.927 44.267 20.965 20.965 0 0 1-4.751-.604 9063.438 9063.438 0 0 1 37.427-46.12c1.438-1.79 2.918-3.602 4.376-5.392a13963.27 13963.27 0 0 1 18.339-22.404c4.73-5.768 9.419-11.577 14.546-17.011.458-.5.917-.979 1.396-1.478 10.399-10.744 23.381-20.239 38.927-20.489 9.149-.145 17.985 2.749 26.487 5.809 9.148 3.311 18.276 6.684 27.424 10.036l55.141 20.155 13.795 5.039c2.438.875 1.396 4.831-1.083 3.915Z" fill="url(#f)"/><path d="M1.451 107.405V50.229a6.735 6.735 0 0 1 1.978-4.756 6.747 6.747 0 0 1 4.762-1.97h74.154v-1.45H8.191a8.2 8.2 0 0 0-5.788 2.396A8.186 8.186 0 0 0 0 50.229v57.176h1.451ZM6.598 245.057a6.717 6.717 0 0 1-5.147-6.545v-57.168H0v57.168a8.16 8.16 0 0 0 6.254 7.953 8.102 8.102 0 0 0 1.828.231h74.263v-1.45H8.091a6.647 6.647 0 0 1-1.493-.189ZM338.813 181.344v57.168a6.742 6.742 0 0 1-6.74 6.734h-74.154v1.45h74.154a8.197 8.197 0 0 0 8.191-8.184v-57.168h-1.451ZM337.356 44.262c.38.198.74.433 1.074.702a6.653 6.653 0 0 1 2.56 5.265v57.176h1.451V50.229a8.083 8.083 0 0 0-3.108-6.4 8.09 8.09 0 0 0-5.083-1.776h-74.155v1.45h74.155a6.655 6.655 0 0 1 3.106.76Z" fill="#56586F"/><path d="m469.975 253.691-62.686 3.139-4.353 21.022v18.725l-2.671 69.718 18.632 54.361h14.939l-1.517-6.887a7.18 7.18 0 0 0 .248-7.991l-1.199-1.914-1.951-8.217-4.353-30.446 18.644-68.624 2.396 125.166h16.229l2.38-2.716a9.109 9.109 0 0 0 .72-11.067v-3.035l-1.917-10.728 17.886-133.168-11.427-7.338Z" fill="#101320"/><path d="m442.89 123.192-20.449 1.046-2.323 9.684-14.849 11.355a22.639 22.639 0 0 0-8.467 22.356l8.231 41.838-.535 26.186 1.188 10.723-.09 1.624-1.818 1.487a7.026 7.026 0 0 0-1.834 8.594s-8.961 19.356 4.005 20.341c12.966.984 20.985-12.486 33.373-7.249 12.389 5.237 23.448 5.85 26.844 0 3.396-5.851 13.728-4.487 14.971-9.598 1.243-5.111-5.048-10.896-5.893-18.515-.845-7.618-3.022-43.137-3.022-43.137l6.087-34.873a23.085 23.085 0 0 0-2.189-14.482 23.111 23.111 0 0 0-10.467-10.256l-19.487-9.48-3.276-7.644Z" fill="url(#g)"/><path d="M336.396 232.376a7.514 7.514 0 0 1 9.783-3.737c.363.163.711.355 1.042.575l21.012-15.632 11.69 7.861-31.101 18.306a7.49 7.49 0 0 1-8.859 2.252 7.161 7.161 0 0 1-4.262-6.721c.023-.94.231-1.866.613-2.726.026-.06.054-.119.082-.178Z" fill="#A0616A"/><path d="M401.68 149.932s-27.237 49.553-37.784 64.127l-8.007 6.249.725 20.424 17.892-9.865s36.106-27.326 35.071-38.703c-1.036-11.377-7.897-42.232-7.897-42.232Z" fill="url(#h)"/><path d="M430.93 121.556c10.671 0 19.322-8.643 19.322-19.305 0-10.662-8.651-19.305-19.322-19.305s-19.321 8.643-19.321 19.305c0 10.662 8.65 19.305 19.321 19.305Z" fill="#A0616A"/><path d="M438.396 119.974c-5.544-.182-6.048-1.645-11.593-1.827-1.765-.058-3.848-.3-4.702-1.845-.608-1.1-.328-2.486.207-3.624a33.072 33.072 0 0 0 1.708-3.357 5.86 5.86 0 0 0-3.053-7.174 5.89 5.89 0 0 0-2.762-.557c-1.687.073-3.272.866-4.954 1.011-2.308.199-7.411-7.414-6.348-9.47 1.034-2.002 3.115-3.512 3.442-5.741.214-1.458-.388-2.906-.47-4.377-.122-2.181 5.411 2.737 4.398.8-2.486-4.748 20.941-10.634 24.797-4.686 1.442 2.223 4.011 2.07 6.3 3.406 1.501.875 5.29 3.894 6.152 5.775a14.651 14.651 0 0 1 1.097 6.061c.035 9.651-1.437 18.529-9.228 24.234" fill="#1A1B29"/><path d="M342.07 448.275a35.328 35.328 0 0 1-28.483-10.616c-4.782-5.037-8.063-11.52-11.236-17.79a261.998 261.998 0 0 0-2.85-5.52 11.246 11.246 0 0 1 1.169-12.563 11.08 11.08 0 0 1 11.828-3.776l.463.134 4.168 16.247c.621-2.423 1.956-7.884 2.798-13.233l.071-.448.415.184a56.679 56.679 0 0 1 12.179 7.333 58.39 58.39 0 0 1 15.772 19.574 58.33 58.33 0 0 1 6.075 24.385l.011.506-12.38-4.417Z" fill="#F2F2F2"/><path d="M501.136 453.777 298.9 454a.865.865 0 0 1-.609-1.473.864.864 0 0 1 .609-.253l202.236-.223a.872.872 0 0 1 .613.252.855.855 0 0 1 .253.611.854.854 0 0 1-.253.611.848.848 0 0 1-.282.187.835.835 0 0 1-.331.065Z" fill="#CACACA"/></g><defs><linearGradient id="b" x1="404.797" y1="90.023" x2="404.797" y2="167.807" gradientUnits="userSpaceOnUse"><stop stop-color="#8F00FF"/><stop offset="1" stop-color="#520093"/></linearGradient><linearGradient id="c" x1="320.094" y1="174.046" x2="360.335" y2="174.036" gradientUnits="userSpaceOnUse"><stop stop-color="#5096FF"/><stop offset="1" stop-color="#2368CF"/></linearGradient><linearGradient id="d" x1="268.309" y1="155.271" x2="352.186" y2="155.241" gradientUnits="userSpaceOnUse"><stop stop-color="#5096FF"/><stop offset="1" stop-color="#2368CF"/></linearGradient><linearGradient id="e" x1="84.32" y1="177.223" x2="167.301" y2="177.175" gradientUnits="userSpaceOnUse"><stop stop-color="#5096FF"/><stop offset="1" stop-color="#2368CF"/></linearGradient><linearGradient id="f" x1="53.707" y1="164.764" x2="292.951" y2="164.468" gradientUnits="userSpaceOnUse"><stop stop-color="#5096FF"/><stop offset="1" stop-color="#2368CF"/></linearGradient><linearGradient id="g" x1="438.838" y1="123.192" x2="438.838" y2="278.478" gradientUnits="userSpaceOnUse"><stop stop-color="#8F00FF"/><stop offset="1" stop-color="#520093"/></linearGradient><linearGradient id="h" x1="382.744" y1="149.932" x2="382.744" y2="240.732" gradientUnits="userSpaceOnUse"><stop stop-color="#8F00FF"/><stop offset="1" stop-color="#520093"/></linearGradient><clipPath id="a"><path fill="#fff" d="M0 0h502v454H0z"/></clipPath></defs></svg>