<svg width="30" height="20" fill="none" xmlns="http://www.w3.org/2000/svg"><path fill-rule="evenodd" clip-rule="evenodd" d="M0 1.73v16.308a1.58 1.58 0 0 0 1.608 1.606h26.513c.93 0 1.608-.727 1.608-1.606V1.73c0-.974-.606-1.73-1.608-1.73H1.608C.568 0 0 .775 0 1.73Zm2.445 1.42c0-.393.247-.617.643-.617.245 0 9.879 5.86 10.462 6.204l1.508.9c.478-.308.958-.57 1.454-.89 1.01-.62 10.009-6.214 10.257-6.214.397 0 .643.224.643.617 0 .417-.835.83-1.379 1.149-3.417 1.999-6.833 4.178-10.216 6.252-.198.128-.58.402-.866.36-.32-.047-10.123-6.093-11.906-7.1-.269-.152-.6-.29-.6-.66Z" fill="url(#a)"/><defs><linearGradient id="a" x1="14.864" y1="0" x2="14.864" y2="19.644" gradientUnits="userSpaceOnUse"><stop stop-color="#8F00FF"/><stop offset="1" stop-color="#520093"/></linearGradient></defs></svg>