<svg width="18" height="18" fill="none" xmlns="http://www.w3.org/2000/svg"><g clip-path="url(#a)"><path d="M9 0A3.677 3.677 0 0 0 7.617.28c-.062.026-.126.042-.187.07-.026.012-.045.035-.07.047a4.143 4.143 0 0 0-.446.258c-.02.013-.05.01-.07.024-.042.029-.076.063-.117.093-.118.085-.242.162-.352.258-.1.09-.187.204-.281.305a5.036 5.036 0 0 0-.82 1.078 6.571 6.571 0 0 0-.797 2.227.313.313 0 0 0-.165 0c-.393.128-.49.876-.234 1.664.15.462.401.826.656 1.03.343 1.334 1.07 2.446 2.016 3.142v.773L6 12l-1.5.75c-1.213.6-2.421 1.204-3.633 1.804-.671.405-.931 1.2-.867 1.946.031.47-.138 1.07.328 1.383.443.228.972.08 1.453.117H12c1.775 0 3.545.003 5.32 0 .576-.04.736-.649.68-1.125.01-.7.052-1.482-.492-2.016-.444-.452-1.075-.63-1.617-.938-.796-.393-1.596-.777-2.391-1.171L12 12l-.75-.75v-.773c.947-.696 1.672-1.808 2.016-3.141.255-.205.505-.57.655-1.031.257-.788.16-1.536-.233-1.664a.314.314 0 0 0-.165 0 6.573 6.573 0 0 0-.796-2.227 5.033 5.033 0 0 0-.82-1.078c-.095-.1-.181-.214-.282-.305-.005-.004-.019.004-.023 0a4.264 4.264 0 0 0-.961-.633A4.19 4.19 0 0 0 9.609.047c-.015-.003-.031.002-.046 0A3.358 3.358 0 0 0 9 0Z" fill="url(#b)"/><path d="M0 17.25c.02.225.095.45.328.6.443.225.972.075 1.453.15H17.32c.433-.075.632-.375.68-.75H0Z" fill="url(#c)"/></g><defs><linearGradient id="b" x1="9.001" y1="0" x2="9.001" y2="18.013" gradientUnits="userSpaceOnUse"><stop stop-color="#8F00FF"/><stop offset="1" stop-color="#520093"/></linearGradient><linearGradient id="c" x1="9" y1="17.25" x2="9" y2="18" gradientUnits="userSpaceOnUse"><stop stop-color="#8F00FF"/><stop offset="1" stop-color="#520093"/></linearGradient><clipPath id="a"><path fill="#fff" d="M0 0h18v18H0z"/></clipPath></defs></svg>