<svg width="18" height="15" fill="none" xmlns="http://www.w3.org/2000/svg"><path fill-rule="evenodd" clip-rule="evenodd" d="M0 1.297V13.53c0 .665.406 1.204.965 1.204h15.907c.559 0 .965-.545.965-1.204V1.297c0-.73-.363-1.297-.965-1.297H.965C.34 0 0 .581 0 1.297Zm1.467 1.066c0-.295.148-.464.386-.464C2 1.9 7.78 6.295 8.13 6.552l.905.676c.287-.231.575-.428.872-.667.607-.466 6.006-4.662 6.154-4.662.238 0 .386.169.386.464 0 .312-.5.622-.827.861-2.05 1.5-4.1 3.134-6.13 4.69-.118.095-.348.301-.52.27-.191-.036-6.073-4.57-7.143-5.326-.161-.113-.36-.217-.36-.495Z" fill="url(#a)"/><defs><linearGradient id="a" x1="8.919" y1="0" x2="8.919" y2="14.733" gradientUnits="userSpaceOnUse"><stop stop-color="#8F00FF"/><stop offset="1" stop-color="#520093"/></linearGradient></defs></svg>