<svg width="18" height="18" fill="none" xmlns="http://www.w3.org/2000/svg"><g clip-path="url(#a)"><path d="M17.961 13.947c-.05-.154-.375-.38-.971-.678a29.89 29.89 0 0 0-.69-.383 65.332 65.332 0 0 1-.812-.448 27.492 27.492 0 0 1-.684-.396c-.034-.025-.14-.1-.32-.224a3.58 3.58 0 0 0-.454-.275.836.836 0 0 0-.364-.09c-.17 0-.383.122-.639.365a6.22 6.22 0 0 0-.703.793c-.213.286-.439.55-.677.792-.239.243-.435.365-.588.365a.87.87 0 0 1-.288-.064 2.992 2.992 0 0 1-.263-.108c-.059-.03-.161-.09-.306-.18a7.738 7.738 0 0 0-.243-.147c-1.168-.648-2.169-1.39-3.004-2.224-.835-.835-1.577-1.837-2.224-3.004a7.408 7.408 0 0 0-.148-.243 4.613 4.613 0 0 1-.179-.307 2.77 2.77 0 0 1-.108-.262.865.865 0 0 1-.064-.288c0-.153.121-.35.364-.588a7.7 7.7 0 0 1 .793-.677c.285-.213.55-.448.792-.703.243-.256.365-.469.365-.64 0-.119-.03-.24-.09-.364a3.553 3.553 0 0 0-.275-.454 16.801 16.801 0 0 0-.223-.32c-.128-.212-.26-.44-.397-.683a64.487 64.487 0 0 1-.447-.812c-.162-.298-.29-.528-.384-.69-.298-.597-.524-.92-.677-.972A.716.716 0 0 0 3.785 0c-.23 0-.531.043-.902.128-.37.085-.662.174-.875.268-.427.18-.878.7-1.356 1.56-.434.8-.651 1.593-.651 2.377 0 .23.014.454.044.672.03.217.083.462.16.735.077.272.139.475.185.607.047.132.135.368.262.71.128.34.205.549.23.626.299.835.652 1.58 1.061 2.237.673 1.09 1.592 2.218 2.755 3.382 1.163 1.163 2.29 2.081 3.381 2.754.657.41 1.403.763 2.238 1.061.076.026.285.102.626.23.34.128.578.216.71.263.131.047.334.108.607.185.273.077.518.13.735.16.217.03.441.045.67.045.785 0 1.578-.217 2.379-.652.86-.477 1.38-.929 1.559-1.355.094-.213.183-.505.268-.876.086-.37.128-.67.128-.901a.712.712 0 0 0-.038-.27Z" fill="url(#b)"/></g><defs><linearGradient id="b" x1="9" y1="0" x2="9" y2="18" gradientUnits="userSpaceOnUse"><stop stop-color="#8F00FF"/><stop offset="1" stop-color="#520093"/></linearGradient><clipPath id="a"><path fill="#fff" d="M0 0h18v18H0z"/></clipPath></defs></svg>