<svg width="30" height="30" fill="none" xmlns="http://www.w3.org/2000/svg"><g clip-path="url(#a)"><path d="M15 0A15.005 15.005 0 1 1 4.395 4.395 14.944 14.944 0 0 1 15 0ZM7.866 19.382l4.854-4.865-4.854-3.958v8.823Zm5.388-4.43L8.25 19.967h13.457l-4.78-5.017-1.578 1.345a.346.346 0 0 1-.44 0l-1.655-1.35v.005Zm4.195-.445 4.685 4.914v-8.906l-4.685 3.992ZM8.3 10.032l6.811 5.556 6.531-5.556H8.301Zm15.967-4.307a13.115 13.115 0 1 0 3.842 9.277 13.076 13.076 0 0 0-3.842-9.277Z" fill="#56586F"/></g><defs><clipPath id="a"><path fill="#fff" d="M0 0h30v30H0z"/></clipPath></defs></svg>