<svg width="15" height="20" fill="none" xmlns="http://www.w3.org/2000/svg"><g clip-path="url(#a)"><path fill-rule="evenodd" clip-rule="evenodd" d="M7.5 0C3.354 0 0 3.13 0 7c0 4.17 4.736 9.92 6.686 12.11.428.48 1.21.48 1.639 0C10.265 16.92 15 11.17 15 7c0-3.87-3.354-7-7.5-7Zm0 9.5C6.021 9.5 4.821 8.38 4.821 7s1.2-2.5 2.679-2.5c1.479 0 2.679 1.12 2.679 2.5S8.979 9.5 7.5 9.5Z" fill="url(#b)"/></g><defs><linearGradient id="b" x1="7.5" y1="0" x2="7.5" y2="19.47" gradientUnits="userSpaceOnUse"><stop stop-color="#8F00FF"/><stop offset="1" stop-color="#520093"/></linearGradient><clipPath id="a"><path fill="#fff" d="M0 0h15v20H0z"/></clipPath></defs></svg>