<svg width="20" height="20" fill="none" xmlns="http://www.w3.org/2000/svg"><g clip-path="url(#a)"><path d="M19.957 15.496c-.057-.17-.417-.421-1.08-.752-.18-.105-.435-.247-.766-.426-.332-.18-.633-.346-.902-.498-.27-.151-.524-.298-.76-.44a18.301 18.301 0 0 0-.355-.249 4.005 4.005 0 0 0-.505-.305.93.93 0 0 0-.405-.1c-.19 0-.426.136-.71.405-.284.27-.544.564-.78.881-.237.318-.488.61-.753.88-.266.27-.484.406-.654.406a.964.964 0 0 1-.32-.071 3.291 3.291 0 0 1-.29-.12 5.33 5.33 0 0 1-.341-.2 8.664 8.664 0 0 0-.27-.163c-1.298-.72-2.41-1.544-3.339-2.472-.927-.928-1.751-2.04-2.471-3.338a8.238 8.238 0 0 0-.163-.27 5.127 5.127 0 0 1-.2-.34 3.08 3.08 0 0 1-.12-.292.961.961 0 0 1-.07-.32c-.001-.17.134-.388.404-.653s.563-.516.88-.753c.318-.236.611-.497.881-.78.27-.285.405-.521.405-.71a.928.928 0 0 0-.1-.406 3.948 3.948 0 0 0-.305-.504c-.137-.199-.22-.317-.249-.355-.141-.237-.288-.49-.44-.76-.151-.27-.317-.57-.497-.902-.18-.331-.322-.587-.426-.767C4.925.46 4.674.1 4.503.042A.795.795 0 0 0 4.205 0c-.256 0-.59.047-1.001.142A5.625 5.625 0 0 0 2.23.44c-.474.2-.976.777-1.506 1.733C.242 3.063 0 3.943 0 4.815c0 .255.017.504.05.746.033.241.093.513.178.816.085.303.154.529.206.675.052.147.149.41.29.788.143.38.228.611.256.696.332.928.725 1.757 1.18 2.486.747 1.212 1.768 2.465 3.06 3.757 1.293 1.293 2.545 2.313 3.757 3.061.73.455 1.558.848 2.486 1.18.085.028.317.113.696.255.379.142.641.24.788.291.147.053.372.121.675.207.303.085.575.144.817.178.241.032.49.049.745.049.871 0 1.752-.241 2.642-.724.956-.53 1.534-1.032 1.733-1.506.104-.237.203-.561.298-.973.095-.412.142-.746.142-1.002a.792.792 0 0 0-.042-.299Z" fill="url(#b)"/></g><defs><linearGradient id="b" x1="10" y1="0" x2="10" y2="20" gradientUnits="userSpaceOnUse"><stop stop-color="#8F00FF"/><stop offset="1" stop-color="#520093"/></linearGradient><clipPath id="a"><path fill="#fff" d="M0 0h20v20H0z"/></clipPath></defs></svg>