<svg width="40" height="40" viewBox="0 0 40 40" fill="none" xmlns="http://www.w3.org/2000/svg">
<path d="M38.3251 1.61238C38.1918 1.4778 38.0298 1.37523 37.8511 1.31243C37.6725 1.24964 37.4819 1.22825 37.2938 1.24988C26.7831 2.25356 16.9381 6.84394 9.41256 14.2499L1.83129 15.9186C1.61121 15.9653 1.40781 16.0705 1.24254 16.2231C1.07727 16.3758 0.956249 16.5702 0.892249 16.7859C0.828255 17.0015 0.823649 17.2304 0.878917 17.4486C0.934186 17.6666 1.04729 17.8658 1.20629 18.0249L22.0688 38.8811C22.2279 39.0401 22.4271 39.1533 22.6451 39.2085C22.8632 39.2638 23.0921 39.2592 23.3078 39.1952C23.5235 39.1312 23.7179 39.0101 23.8706 38.8449C24.0232 38.6796 24.1284 38.4762 24.1751 38.2561L25.8501 30.6686C33.2552 23.0997 37.7943 13.1886 38.6876 2.63738C38.7082 2.45026 38.6863 2.2609 38.6236 2.08341C38.5608 1.90593 38.4588 1.74491 38.3251 1.61238ZM25.7063 18.6936C20.0376 18.5311 20.0063 10.2686 25.7063 10.0936C31.4001 10.2686 31.3688 18.5311 25.7063 18.6936Z" fill="url(#paint0_linear_374_362)"/>
<path d="M6.10004 27.2438C5.9448 27.0881 5.75121 26.976 5.53881 26.919C5.32642 26.862 5.10274 26.862 4.89035 26.919C4.67796 26.9761 4.48439 27.0882 4.32917 27.244C4.17394 27.3998 4.06258 27.5938 4.00629 27.8063L1.58754 36.8313C1.53014 37.044 1.52994 37.268 1.58696 37.4808C1.64398 37.6935 1.75621 37.8874 1.91226 38.0428C2.06832 38.1983 2.26267 38.3096 2.47564 38.3658C2.68861 38.422 2.91264 38.4209 3.12505 38.3626L12.1501 35.9438C12.3626 35.8876 12.5566 35.7762 12.7124 35.621C12.8682 35.4658 12.9803 35.2722 13.0374 35.0598C13.0944 34.8474 13.0944 34.6237 13.0374 34.4113C12.9804 34.199 12.8683 34.0053 12.7126 33.8501L6.10004 27.2438Z" fill="url(#paint1_linear_374_362)"/>
<defs>
<linearGradient id="paint0_linear_374_362" x1="19.7679" y1="1.2417" x2="19.7679" y2="39.2468" gradientUnits="userSpaceOnUse">
<stop stop-color="#8F00FF"/>
<stop offset="1" stop-color="#520093"/>
</linearGradient>
<linearGradient id="paint1_linear_374_362" x1="7.31226" y1="26.8762" x2="7.31226" y2="38.4071" gradientUnits="userSpaceOnUse">
<stop stop-color="#8F00FF"/>
<stop offset="1" stop-color="#520093"/>
</linearGradient>
</defs>
</svg>
